<svg width="45" height="45" viewBox="0 0 45 45" fill="none" xmlns="http://www.w3.org/2000/svg">
  <circle cx="22.5" cy="22.5" r="22.5" fill="white" />
  <path d="M34.9402 19.8087C34.919 20.129 34.806 20.4403 34.6107 20.716C34.4264 20.9898 34.1748 21.2274 33.8725 21.4131C33.7409 21.4934 33.5863 21.543 33.4244 21.557L31.1045 21.8115C30.8472 21.8483 30.6086 21.9484 30.4191 22.0992C29.7205 22.6635 29.0088 23.2057 28.0334 24.0688L26.913 24.9982C26.7673 25.1252 26.6629 25.2814 26.6098 25.4519L25.3708 29.6345C25.3761 29.6787 25.3761 29.7232 25.3708 29.7673C25.1991 30.0916 24.9371 30.3765 24.6067 30.598C24.2764 30.8195 23.8875 30.971 23.4727 31.0398H22.9982C22.7399 31.0377 22.483 31.008 22.2337 30.9513C21.8299 30.8473 21.4631 30.6611 21.166 30.4091L17.8181 27.6096L11.6625 32.777C11.4751 32.9236 11.2272 33.0034 10.9711 32.9996C10.715 32.9958 10.4707 32.9087 10.2895 32.7567C10.1084 32.6046 10.0047 32.3995 10.0002 32.1845C9.99564 31.9695 10.0907 31.7614 10.2653 31.6041L16.4209 26.4367L13.1256 23.6704C12.8309 23.415 12.6139 23.1038 12.4929 22.7631C12.3591 22.424 12.3363 22.0609 12.427 21.7119C12.5044 21.3679 12.6809 21.045 12.9411 20.7713C13.2046 20.494 13.5436 20.2739 13.9296 20.1296H14.0878L19.0175 19.023C19.2359 18.9741 19.4356 18.8788 19.5975 18.7464C21.4297 17.2305 22.0623 16.6994 23.0641 15.792C23.2346 15.6405 23.3411 15.4461 23.3673 15.2388L23.6836 13.2802C23.6979 13.1405 23.7571 13.0066 23.855 12.8929C24.1921 12.512 24.6663 12.2321 25.2074 12.0946C25.7486 11.9572 26.328 11.9694 26.8602 12.1295C27.2166 12.2398 27.5403 12.4134 27.8093 12.6384L34.2416 18.0604C34.5051 18.2849 34.7084 18.554 34.838 18.8498C34.9676 19.1456 35.0204 19.4612 34.9929 19.7755L34.9402 19.8087Z" fill="#1F2B51" />
</svg>